
        <svg xmlns="http://www.w3.org/2000/svg" xmlns:xlink="http://www.w3.org/1999/xlink" version="1.1" width="3342.8571428571427" height="1285.7295519881477" viewBox="0 0 3342.8571428571427 1285.7295519881477">
			
			<g transform="scale(17.142857142857142) translate(10, 10)">
				<defs id="SvgjsDefs2007"/><g id="SvgjsG2008" featureKey="v37d4h-0" transform="matrix(0.6111198662022391,0,0,0.6111198662022391,-3.055888113029574,-3.055805645510703)" fill="#fff"><path xmlns="http://www.w3.org/2000/svg" fill-rule="evenodd" clip-rule="evenodd" d="M34.651,34.651C45.443,23.861,50.439,11.36,45.81,6.731  c-4.631-4.635-17.138,0.361-27.927,11.153C7.093,28.675,2.097,41.179,6.73,45.808C11.359,50.438,23.863,45.442,34.651,34.651z"/><path xmlns="http://www.w3.org/2000/svg" fill-rule="evenodd" clip-rule="evenodd" d="M82.113,82.116C92.904,71.326,97.9,58.823,93.27,54.194  c-4.631-4.632-17.129,0.363-27.922,11.156c-10.791,10.791-15.786,23.292-11.158,27.92C58.822,97.903,71.326,92.911,82.113,82.116z"/><path xmlns="http://www.w3.org/2000/svg" fill-rule="evenodd" clip-rule="evenodd" d="M34.651,65.351C23.863,54.558,11.359,49.562,6.73,54.194  c-4.633,4.629,0.363,17.134,11.153,27.922C28.674,92.911,41.179,97.903,45.81,93.271C50.443,88.639,45.443,76.142,34.651,65.351z"/><path xmlns="http://www.w3.org/2000/svg" fill-rule="evenodd" clip-rule="evenodd" d="M82.113,17.885C71.326,7.093,58.822,2.096,54.189,6.731  c-4.627,4.629,0.367,17.13,11.158,27.919C76.141,45.442,88.643,50.438,93.27,45.808C97.902,41.177,92.908,28.675,82.113,17.885z"/><path xmlns="http://www.w3.org/2000/svg" d="M50.001,14.6c0,19.552-15.853,35.401-35.401,35.401c19.552,0,35.401,15.849,35.401,35.398  c0-19.549,15.848-35.398,35.397-35.398C65.85,50.001,50.001,34.152,50.001,14.6z"/></g><g id="SvgjsG2009" featureKey="UxBHKT-0" transform="matrix(1.747640414771263,0,0,1.747640414771263,73.88150995121161,5.611325675761982)" fill="#fff"><path d="M4.88 20 l-3 0 l0 -8.26 l-1.24 0 l0 -2.56 l1.24 0 q0.08 -2.14 1.22 -3.26 t3.16 -1.12 q0.6 0 1.32 0.18 l-0.16 2.42 q-0.38 -0.12 -0.82 -0.12 q-1.08 0 -1.4 0.54 t-0.32 1.36 l1.98 0 l0 2.56 l-1.98 0 l0 8.26 z M11.21 19.49 q-1.37 -0.77 -2.17 -2.09 t-0.8 -2.88 q0 -1.54 0.8 -2.86 t2.17 -2.09 t2.99 -0.77 t3 0.77 t2.19 2.09 t0.81 2.86 q0 1.56 -0.81 2.88 t-2.19 2.09 t-3 0.77 t-2.99 -0.77 z M12.68 11.83 q-0.7 0.41 -1.1 1.12 t-0.4 1.57 q0 0.9 0.39 1.61 t1.08 1.12 t1.55 0.41 q0.84 0 1.53 -0.41 t1.09 -1.13 t0.4 -1.6 q0 -0.86 -0.4 -1.57 t-1.09 -1.12 t-1.53 -0.41 q-0.82 0 -1.52 0.41 z M25.12 19.51 q-1.38 -0.77 -2.19 -2.09 t-0.81 -2.88 t0.81 -2.87 t2.18 -2.08 t2.99 -0.77 q1.74 0 3.15 0.83 t2.25 2.37 l-2.7 1.06 q-0.48 -0.82 -1.18 -1.23 t-1.52 -0.41 q-1.3 0 -2.15 0.88 t-0.85 2.22 t0.86 2.22 t2.16 0.88 q1.8 0 2.78 -1.6 l2.54 1 q-1.58 3.24 -5.32 3.24 q-1.62 0 -3 -0.77 z M35.620000000000005 15.54 l0 -6.5 l3.02 0 l0 6.5 q0 1.18 0.59 1.69 t1.55 0.51 q0.84 0 1.5 -0.65 t0.6 -2.23 l0 -5.82 l3 0 l0 10.96 l-3 0 l0 -0.94 q-0.54 0.56 -1.31 0.87 t-1.63 0.31 q-4.32 0 -4.32 -4.7 z M48.18 18.54 l1.56 -2.08 q0.72 0.5 1.68 0.84 t1.88 0.34 q0.68 0 1.13 -0.28 t0.45 -0.7 t-0.51 -0.59 t-0.99 -0.24 t-0.62 -0.09 q-1.2 -0.2 -2.07 -0.48 t-1.58 -1 t-0.71 -1.98 q0 -2.08 1.51 -2.78 t3.03 -0.7 q1.3 0 2.4 0.38 t2.18 1.2 l-1.56 2.04 q-0.78 -0.46 -1.54 -0.74 t-1.58 -0.28 q-0.5 0 -0.97 0.22 t-0.47 0.6 q0 0.48 0.65 0.68 t1.43 0.3 q1.4 0.24 2.24 0.5 t1.49 0.97 t0.65 2.01 q0 1.72 -1.18 2.65 t-3.34 0.93 q-3 0 -5.16 -1.72 z"/></g>
			</g>
		</svg>
	